<svg xmlns="http://www.w3.org/2000/svg" width="900" height="520" viewBox="0 0 900 520" role="img" aria-labelledby="title desc">
  <title id="title">Install XAMPP step</title>
  <desc id="desc">Illustration showing a setup wizard and selected components.</desc>
  <rect width="900" height="520" rx="18" fill="#f7f8fa"/>
  <rect x="105" y="70" width="690" height="380" rx="16" fill="#fff" stroke="#dbe2ea" stroke-width="3"/>
  <rect x="105" y="70" width="690" height="62" rx="16" fill="#fb7f22"/>
  <text x="145" y="110" font-family="Arial" font-size="24" font-weight="700" fill="#fff">XAMPP Setup Wizard</text>
  <text x="145" y="175" font-family="Arial" font-size="22" font-weight="700" fill="#082f57">Select Components</text>
  <g font-family="Arial" font-size="18" fill="#17202a">
    <rect x="150" y="210" width="22" height="22" rx="4" fill="#082f57"/><path d="M155 221l5 5 9-12" stroke="#fff" stroke-width="3" fill="none"/><text x="190" y="228">Apache</text>
    <rect x="150" y="252" width="22" height="22" rx="4" fill="#082f57"/><path d="M155 263l5 5 9-12" stroke="#fff" stroke-width="3" fill="none"/><text x="190" y="270">PHP</text>
    <rect x="150" y="294" width="22" height="22" rx="4" fill="#082f57"/><path d="M155 305l5 5 9-12" stroke="#fff" stroke-width="3" fill="none"/><text x="190" y="312">MariaDB</text>
    <rect x="150" y="336" width="22" height="22" rx="4" fill="#082f57"/><path d="M155 347l5 5 9-12" stroke="#fff" stroke-width="3" fill="none"/><text x="190" y="354">phpMyAdmin</text>
  </g>
  <rect x="590" y="380" width="120" height="44" rx="8" fill="#082f57"/>
  <text x="650" y="408" text-anchor="middle" font-family="Arial" font-size="17" font-weight="700" fill="#fff">Next</text>
</svg>
